<svg xmlns="http://www.w3.org/2000/svg" width="427" height="52">
    <path fill="#064545" fill-rule="evenodd" d="M407.085 27.783c.224 6.776 2.632 10.135 7.868 10.135 4.256 0 7-1.68 7-5.712h3.92c0 5.377-3.584 9.016-10.976 9.016-8.288 0-11.76-5.207-11.76-14.559 0-9.464 4.592-14.336 11.928-14.336 7.28 0 11.088 4.592 11.088 13.216v2.24h-19.068zm7.868-12.152c-4.732 0-7.476 2.94-7.84 8.68h15.12c-.196-5.377-2.24-8.68-7.28-8.68zm-21.497 21.952c-2.156 2.183-5.04 3.639-8.54 3.639-6.944 0-9.912-5.263-9.912-14.559 0-9.128 2.968-14.336 9.856-14.336 3.416 0 6.3 1.427 8.484 3.527a22.189 22.189 0 0 1-.084-1.791V.903h3.92v39.759h-3.472l-.252-3.079zm-.196-17.752c-1.848-2.072-4.76-4.144-7.896-4.144-5.096 0-6.44 4.704-6.44 11.088 0 6.495 1.288 11.088 6.44 11.088 3.136 0 6.048-2.072 7.896-4.144V19.831zm-30.279.476c-4.311 0-6.272 2.828-6.272 7.363v12.992h-7.896V12.327h7.001l.363 4.452c1.121-2.996 3.781-5.18 7.085-5.18.671 0 1.175.055 1.763.14l-.699 8.568h-1.345zm-31.269 15.147c2.856 0 4.479-1.455 4.479-4.031h7.784c0 4.368-2.408 9.968-12.292 9.968-9.435 0-12.991-5.237-12.991-14.896 0-11.004 5.544-14.896 13.132-14.896 7.7 0 12.431 4.032 12.431 14.363v2.548H326.7c.168 4.9 1.708 6.944 5.012 6.944zm4.647-11.927c-.139-3.809-1.456-5.992-4.647-5.992-2.997 0-4.704 1.848-4.985 5.992h9.632zm-29.915-.252c0-3.136-.98-4.621-3.332-4.621-1.736 0-3.612.98-5.04 2.184v19.824h-7.896V12.327h7.112l.336 3.023c2.296-2.071 5.572-3.696 8.792-3.696 5.74 0 7.924 3.529 7.924 8.961v20.047h-7.896V23.275zm-29.668 0c0-3.136-.98-4.621-3.332-4.621-1.736 0-3.612.98-5.04 2.184v19.824h-7.896V.903h7.896v10.948c0 .924-.056 2.128-.14 3.22 2.268-1.933 5.404-3.417 8.484-3.417 5.824 0 7.924 3.529 7.924 8.961v20.047h-7.896V23.275zm-32.581 12.067c2.66 0 4.116-1.595 4.116-4.983h7.784c0 5.432-2.464 11.032-12.012 11.032-9.211 0-12.712-5.237-12.712-14.84 0-9.828 4.032-14.952 12.964-14.952 9.212 0 11.76 5.571 11.76 11.031h-7.784c0-3.359-1.512-4.983-4.172-4.983-3.444 0-4.76 2.631-4.76 8.764 0 6.412 1.512 8.931 4.816 8.931zm-28.75.112c2.856 0 4.48-1.455 4.48-4.031h7.784c0 4.368-2.408 9.968-12.292 9.968-9.436 0-12.992-5.237-12.992-14.896 0-11.004 5.544-14.896 13.132-14.896 7.7 0 12.432 4.032 12.432 14.363v2.548h-17.556c.168 4.9 1.708 6.944 5.012 6.944zm4.648-11.927c-.14-3.809-1.456-5.992-4.648-5.992-2.995 0-4.704 1.848-4.984 5.992h9.632zm-21.901-3.22c-4.312 0-6.272 2.828-6.272 7.363v12.992h-7.896V12.327h7l.364 4.452c1.12-2.996 3.78-5.18 7.084-5.18.672 0 1.176.055 1.764.14l-.7 8.568h-1.344zm-24.471 20.972c-6.02 0-8.26-3.276-8.26-9.464V18.682h-4.48v-6.355h4.508l1.204-8.065h6.664v8.065h6.328v6.355h-6.328v12.153c0 2.968.532 3.807 3.388 3.807 1.036 0 2.128-.083 2.94-.195v6.215c-1.4.309-3.64.617-5.964.617zm-24.119-18.004c0-3.136-.98-4.621-3.332-4.621-1.736 0-3.612.98-5.04 2.184v19.824h-7.896V12.327h7.112l.336 3.023c2.296-2.071 5.572-3.696 8.792-3.696 5.74 0 7.924 3.529 7.924 8.961v20.047h-7.896V23.275zm-33.37 12.179c2.856 0 4.48-1.455 4.48-4.031h7.784c0 4.368-2.408 9.968-12.292 9.968-9.436 0-12.992-5.237-12.992-14.896 0-11.004 5.544-14.896 13.132-14.896 7.7 0 12.432 4.032 12.432 14.363v2.548H111.22c.168 4.9 1.708 6.944 5.012 6.944zm4.648-11.927c-.14-3.809-1.456-5.992-4.648-5.992-2.996 0-4.704 1.848-4.984 5.992h9.632zM77.469 34.586l13.216-15.792H77.609v-6.467h22.512v6.075l-13.3 15.793h13.44v6.467H77.469v-6.076zm-15.965 6.805c-9.52 0-12.964-5.292-12.964-14.813 0-9.547 3.78-14.979 13.076-14.979 9.492 0 12.936 5.291 12.936 14.812 0 9.52-3.808 14.98-13.048 14.98zm.084-23.8c-3.696 0-5.04 2.464-5.04 8.904 0 6.44 1.344 8.904 5.04 8.904 3.64 0 4.956-2.464 4.956-8.904 0-6.44-1.288-8.904-4.956-8.904zm-17.309 2.716c-4.312 0-6.272 2.828-6.272 7.363v12.992h-7.896V12.327h7l.364 4.452c1.12-2.996 3.78-5.18 7.084-5.18.672 0 1.176.055 1.764.14l-.7 8.568h-1.344zM15.238 41.334c-2.744 0-5.18-1.119-7.168-2.744.056.924.084 1.877.084 2.689v10.36H.258V12.327h6.888l.392 2.716c2.156-1.989 4.928-3.389 8.092-3.389 6.58 0 9.772 4.145 9.772 14.561 0 9.996-3.192 15.119-10.164 15.119zm-2.324-22.987c-1.624 0-3.36.84-4.76 1.988v12.459c1.4 1.093 3.08 1.876 4.676 1.876 3.332 0 4.48-2.687 4.48-8.203 0-5.377-1.26-8.12-4.396-8.12z"/>
    <path fill="#FC6025" fill-rule="evenodd" d="M367.64 41.279c1.988 0 3.528-1.54 3.528-3.501 0-1.987-1.54-3.499-3.528-3.499s-3.528 1.512-3.528 3.499c0 1.961 1.54 3.501 3.528 3.501z"/>
</svg>
