<?xml version="1.0" standalone="no"?>
<!DOCTYPE svg PUBLIC "-//W3C//DTD SVG 20010904//EN"
 "http://www.w3.org/TR/2001/REC-SVG-20010904/DTD/svg10.dtd">
<svg version="1.0" xmlns="http://www.w3.org/2000/svg"
 width="700.000000pt" height="700.000000pt" viewBox="0 0 700.000000 700.000000"
 preserveAspectRatio="xMidYMid meet">
<metadata>
Created by potrace 1.11, written by Peter Selinger 2001-2013
</metadata>
<g transform="translate(0.000000,700.000000) scale(0.100000,-0.100000)"
fill="#000000" stroke="none">
<path d="M915 6966 l-27 -35 1 -3028 c0 -1665 0 -3047 1 -3071 0 -34 7 -50 34
-80 l34 -37 1364 0 1363 0 3 117 2 118 -852 0 c-469 -1 -1047 -1 -1285 0
l-432 0 0 2915 0 2915 2099 0 2100 0 2 -2157 3 -2158 115 0 114 0 1 2215 c0
1218 -3 2228 -7 2244 -4 16 -17 40 -30 53 l-21 23 -2278 0 -2278 0 -26 -34z"/>
<path d="M1543 6535 c-18 -8 -42 -29 -53 -47 -19 -32 -20 -49 -20 -698 0 -649
1 -666 20 -698 41 -67 -79 -62 1747 -60 1640 3 1658 3 1685 23 15 11 32 33 38
49 7 20 10 252 10 694 -1 720 1 696 -54 733 -32 21 -3325 25 -3373 4z m3193
-745 l-1 -525 -1515 0 -1515 0 0 525 0 525 1516 0 1516 0 -1 -525z"/>
<path d="M1610 4679 c-36 -3 -74 -11 -86 -19 -49 -30 -49 -32 -52 -433 -3
-336 -1 -381 14 -412 31 -65 31 -65 455 -66 l381 0 34 26 c18 14 37 39 41 56
5 17 8 195 8 397 0 362 -1 368 -22 398 -13 17 -35 37 -51 43 -31 13 -601 21
-722 10z m560 -464 l0 -234 -232 2 -233 2 -1 225 c0 124 1 228 3 233 3 4 107
7 234 7 l229 0 0 -235z"/>
<path d="M2841 4673 c-43 -15 -69 -40 -79 -78 -5 -17 -8 -194 -8 -395 1 -332
3 -368 19 -393 38 -59 31 -58 438 -57 206 0 382 2 392 3 30 5 74 54 81 89 3
18 6 192 5 386 0 304 -2 358 -16 387 -30 64 -42 66 -440 68 -254 1 -367 -1
-392 -10z m610 -236 c1 -7 2 -112 3 -234 l1 -223 -232 1 -233 0 -1 42 c0 52 0
410 1 418 0 4 104 7 230 7 167 0 230 -3 231 -11z"/>
<path d="M4137 4679 c-42 -11 -67 -29 -83 -62 -15 -28 -17 -75 -17 -392 0
-199 4 -375 8 -393 4 -19 20 -42 40 -58 l34 -25 380 0 c401 0 414 2 452 47 22
26 26 781 5 822 -31 59 -49 62 -441 65 -195 1 -366 -1 -378 -4z m601 -465 l0
-234 -234 0 -234 1 0 233 0 233 234 1 234 0 0 -234z"/>
<path d="M1543 3385 c-18 -8 -41 -28 -52 -46 -19 -31 -20 -53 -21 -406 0 -407
0 -413 57 -450 24 -16 62 -18 402 -18 343 0 379 1 412 18 63 31 64 38 64 453
0 401 -1 405 -54 441 -24 16 -61 18 -401 20 -296 1 -382 -2 -407 -12z m620
-224 c4 0 7 -104 7 -231 l0 -230 -27 -1 c-38 -1 -382 -1 -413 0 l-26 1 2 228
c1 125 2 229 3 232 1 4 427 5 454 1z"/>
<path d="M2833 3388 c-18 -5 -42 -22 -55 -41 l-23 -32 0 -381 c0 -412 0 -415
54 -451 24 -16 62 -18 411 -17 351 0 387 1 411 17 56 37 57 48 58 447 0 327
-1 370 -17 401 -33 65 -40 67 -445 66 -199 0 -376 -4 -394 -9z m617 -227 c8
-2 6 -449 -2 -457 -8 -7 -446 -9 -454 -2 -6 7 -7 445 -1 455 4 6 433 10 457 4z"/>
<path d="M4130 3393 c-39 -12 -61 -29 -76 -62 -15 -32 -17 -77 -17 -409 1
-406 0 -400 60 -439 24 -16 63 -18 382 -19 196 -1 374 2 396 7 25 5 50 19 67
38 l28 31 0 390 0 391 -34 37 -34 37 -379 1 c-208 1 -385 -1 -393 -3z m606
-461 l2 -232 -37 -1 c-20 0 -125 -1 -233 -2 l-198 -2 0 232 c0 145 4 233 10
235 5 2 110 3 232 3 l223 -1 1 -232z"/>
<path d="M4253 2209 c-85 -29 -137 -60 -195 -120 -180 -184 -180 -469 1 -650
292 -292 792 -88 792 324 0 217 -141 396 -356 452 -73 19 -176 17 -242 -6z
m229 -233 c82 -39 127 -105 135 -197 13 -135 -98 -249 -237 -244 -99 3 -179
62 -210 155 -41 121 17 244 136 289 58 22 125 21 176 -3z"/>
<path d="M4946 1204 c-542 -542 -986 -988 -986 -991 0 -3 36 -42 80 -86 l80
-79 992 991 992 992 -79 79 c-44 44 -83 80 -86 80 -4 0 -451 -444 -993 -986z"/>
<path d="M1571 2112 c-14 -2 -36 -11 -49 -20 -50 -32 -52 -54 -52 -446 0 -320
2 -370 17 -400 30 -64 47 -66 453 -66 224 0 369 4 386 10 35 14 71 56 76 89 2
14 3 188 3 387 -1 325 -2 363 -18 387 -40 61 -35 61 -431 61 -198 1 -372 -1
-385 -2z m599 -465 l0 -232 -230 0 c-148 0 -230 3 -231 10 -1 5 -2 109 -3 230
l-1 220 40 5 c22 3 127 4 233 2 l192 -3 0 -232z"/>
<path d="M2843 2107 c-38 -10 -57 -26 -75 -62 -12 -25 -15 -92 -14 -405 1
-374 1 -375 24 -407 14 -20 37 -36 60 -43 22 -6 179 -10 390 -10 390 0 405 2
441 61 19 31 20 50 18 413 -2 345 -4 383 -20 407 -35 52 -40 53 -432 53 -201
1 -377 -2 -392 -7z m612 -455 c0 -123 -2 -227 -5 -231 -3 -3 -107 -7 -232 -6
-222 0 -228 0 -228 20 -1 58 -1 338 -1 387 l1 57 113 3 c61 2 166 1 232 -2
l120 -5 0 -223z"/>
<path d="M5620 943 c-303 -40 -486 -336 -385 -622 79 -225 342 -356 570 -284
219 69 360 288 325 504 -20 120 -56 194 -135 272 -95 93 -249 147 -375 130z
m175 -266 c48 -34 66 -56 87 -104 98 -222 -174 -424 -360 -268 -75 63 -103
180 -65 266 46 103 147 156 258 136 27 -5 63 -18 80 -30z"/>
</g>
</svg>
